<svg width="160" height="160" viewBox="0 0 160 160" fill="none" xmlns="http://www.w3.org/2000/svg">
  <rect x="10" y="20" width="140" height="120" rx="28" fill="#F1F5F9" />
  <circle cx="80" cy="68" r="30" fill="#BFDBFE" />
  <path d="M80 52C74 52 70 56 70 62C70 68 74 72 80 72C86 72 90 68 90 62C90 56 86 52 80 52Z" fill="#1D4ED8" />
  <path d="M54 120C54 100 64 88 80 88C96 88 106 100 106 120" fill="#2563EB" opacity="0.85" />
  <path d="M52 112C58 98 68 90 80 90C92 90 102 98 108 112" stroke="white" stroke-width="8" stroke-linecap="round" />
</svg>
